<svg width="48" height="55" viewBox="0 0 48 55" fill="none" xmlns="http://www.w3.org/2000/svg">
<path d="M19.6997 37.7169C19.1295 37.8539 18.7019 37.991 18.2742 38.2651C17.704 37.4428 17.2764 36.4835 16.7062 35.7982C15.7083 34.4278 14.5679 33.1944 13.5701 31.8239C12.002 29.7682 10.719 27.7125 10.1488 25.1087C8.86588 18.6675 12.5722 12.3634 18.987 9.89657C27.3975 6.60747 37.091 12.0893 38.3739 20.7232C38.9441 24.6975 37.6611 27.9866 35.3803 31.1387C34.3825 32.5091 33.0995 33.8796 32.1017 35.3871C31.3889 36.3464 30.9613 37.3057 30.2485 38.2651C29.9634 38.6762 29.6783 39.0873 29.2507 39.2244C25.972 40.4578 22.6933 41.5542 19.4146 42.6505C18.987 42.7876 18.7019 42.6505 18.5593 42.3764C18.4168 41.9653 18.4168 41.5542 18.8445 41.4171C19.1296 41.2801 19.4146 41.143 19.6997 41.143C22.5507 40.1837 25.4018 39.2244 28.2528 38.128C28.5379 37.991 28.823 37.7169 28.9655 37.4428C30.1059 35.3871 31.5315 33.7425 32.957 31.8239C34.3825 30.0423 35.6654 28.3978 36.2356 26.205C37.6612 21.8196 36.6633 17.9823 33.5272 14.6932C29.9634 10.8559 25.4018 9.62247 20.27 11.13C15.1381 12.6375 12.2871 16.0636 11.2892 21.1343C10.5765 24.6975 11.8594 27.7125 13.9977 30.4534C15.2806 32.098 16.5636 33.7425 17.8466 35.3871C18.7019 35.9353 19.1295 36.7576 19.6997 37.7169Z" fill="url(#paint0_linear_2012_4096)"/>
<path d="M18.9872 51.2844C18.8446 51.1474 18.5595 51.0103 18.5595 50.7362C18.5595 50.4621 18.7021 50.1881 18.8447 49.914C18.8447 49.7769 19.1297 49.7769 19.2723 49.7769C22.4084 48.6805 25.6871 47.5842 28.8232 46.4878C29.536 46.2137 29.8211 46.3508 29.9636 46.7619C30.1062 47.173 29.8211 47.5842 29.2509 47.8583C25.9722 48.9546 22.8361 50.051 19.5574 51.2844C19.4149 51.1474 19.2723 51.1474 18.9872 51.2844Z" fill="url(#paint1_linear_2012_4096)"/>
<path d="M18.9872 46.7624C18.8446 46.6254 18.5595 46.4884 18.5595 46.2143C18.5595 45.9402 18.7021 45.6661 18.8447 45.392C18.8447 45.2549 19.1297 45.2549 19.2723 45.2549C22.4084 44.1586 25.6871 43.0622 28.8232 41.9658C29.536 41.6917 29.8211 41.8288 29.9636 42.2399C30.1062 42.6511 29.9636 43.0622 29.2509 43.3363C25.9722 44.4327 22.8361 45.6661 19.5574 46.7624C19.4149 46.7624 19.2723 46.7624 18.9872 46.7624Z" fill="url(#paint2_linear_2012_4096)"/>
<path d="M29.2509 50.5991C28.253 53.8882 22.6935 55.8069 19.2723 54.0253C22.551 52.9289 25.8297 51.6955 29.2509 50.5991Z" fill="url(#paint3_linear_2012_4096)"/>
<path d="M24.9743 2.63333C24.9743 3.18151 24.9743 3.7297 24.9743 4.27788C24.9743 4.68902 24.6892 4.96311 24.2616 4.96311C23.8339 4.96311 23.5488 4.68902 23.5488 4.27788C23.5488 3.18151 23.5488 2.08515 23.5488 0.851733C23.5488 0.440596 23.8339 0.166504 24.2616 0.166504C24.6892 0.166504 24.9743 0.440596 24.9743 0.851733C24.9743 1.39992 24.9743 2.08515 24.9743 2.63333Z" fill="url(#paint4_linear_2012_4096)"/>
<path d="M3.44899 21.8198C4.01919 21.8198 4.58941 21.8198 5.15962 21.8198C5.72982 21.8198 6.01493 22.0939 6.01493 22.5051C6.01493 22.9162 5.72982 23.1903 5.15962 23.1903C4.01921 23.1903 2.87881 23.1903 1.7384 23.1903C1.1682 23.1903 0.883087 22.9162 0.883087 22.5051C0.883087 22.0939 1.1682 21.8198 1.7384 21.8198C2.30861 21.8198 2.87878 21.8198 3.44899 21.8198Z" fill="url(#paint5_linear_2012_4096)"/>
<path d="M45.0739 23.3275C44.5037 23.3275 43.9335 23.3275 43.3633 23.3275C42.9356 23.3275 42.6505 23.0534 42.6505 22.6423C42.6505 22.2311 42.9356 21.957 43.3633 21.957C44.5037 21.957 45.7866 21.957 46.927 21.957C47.3547 21.957 47.6398 22.2311 47.6398 22.6423C47.6398 23.0534 47.3547 23.3275 46.927 23.3275C46.2143 23.3275 45.6441 23.3275 45.0739 23.3275Z" fill="url(#paint6_linear_2012_4096)"/>
<path d="M8.01078 6.19629C8.29588 6.33333 8.43843 6.47038 8.58098 6.60743C9.43628 7.4297 10.1491 8.11493 11.0044 8.93721C11.432 9.34834 11.432 9.62243 11.0044 10.0336C10.7193 10.3077 10.2916 10.3077 9.86393 10.0336C9.00862 9.2113 8.15334 8.52607 7.44059 7.70379C7.29804 7.56675 7.15548 7.15561 7.29803 6.88152C7.44058 6.47038 7.86823 6.33333 8.01078 6.19629Z" fill="url(#paint7_linear_2012_4096)"/>
<path d="M37.804 34.8394C38.0891 34.9764 38.2317 35.1134 38.3742 35.2505C39.2295 35.9357 39.9423 36.758 40.7976 37.4432C41.2252 37.8544 41.2253 38.2655 40.9402 38.5396C40.6551 38.8137 40.2274 38.8137 39.7997 38.4025C38.9444 37.5803 38.2317 36.895 37.3764 36.0728C37.2338 35.9357 37.0913 35.5246 37.2338 35.2505C37.2338 35.1134 37.5189 34.9764 37.804 34.8394Z" fill="url(#paint8_linear_2012_4096)"/>
<path d="M41.2251 7.01885C41.0826 7.29294 40.94 7.42999 40.7975 7.56703C39.9422 8.38931 39.2294 9.07454 38.3741 9.89681C38.089 10.1709 37.6613 10.308 37.2337 9.89681C36.9486 9.62272 36.9486 9.21158 37.2337 8.80045C38.089 7.97817 38.8017 7.1559 39.657 6.47067C39.7996 6.33362 40.2272 6.19658 40.5123 6.33362C40.7975 6.47067 40.94 6.88181 41.2251 7.01885Z" fill="url(#paint9_linear_2012_4096)"/>
<path d="M8.0105 38.8134C7.86795 38.6763 7.58286 38.5393 7.44031 38.2652C7.29776 38.1281 7.44031 37.717 7.44031 37.5799C8.29561 36.7577 9.15091 35.7984 10.1488 34.9761C10.4339 34.702 10.8615 34.702 11.1466 34.9761C11.4317 35.2502 11.4317 35.6613 11.1466 35.9354C10.2913 36.7577 9.43601 37.5799 8.5807 38.4022C8.43815 38.6763 8.29561 38.8134 8.0105 38.8134Z" fill="url(#paint10_linear_2012_4096)"/>
<defs>
<linearGradient id="paint0_linear_2012_4096" x1="9.89633" y1="25.8175" x2="38.5088" y2="25.8175" gradientUnits="userSpaceOnUse">
<stop stop-color="#3B82F6"/>
<stop offset="1" stop-color="white"/>
</linearGradient>
<linearGradient id="paint1_linear_2012_4096" x1="18.5595" y1="48.8148" x2="29.9999" y2="48.8148" gradientUnits="userSpaceOnUse">
<stop stop-color="#3B82F6"/>
<stop offset="1" stop-color="white"/>
</linearGradient>
<linearGradient id="paint2_linear_2012_4096" x1="18.5595" y1="44.2928" x2="30.0133" y2="44.2928" gradientUnits="userSpaceOnUse">
<stop stop-color="#3B82F6"/>
<stop offset="1" stop-color="white"/>
</linearGradient>
<linearGradient id="paint3_linear_2012_4096" x1="19.2723" y1="52.6523" x2="29.2509" y2="52.6523" gradientUnits="userSpaceOnUse">
<stop stop-color="#3B82F6"/>
<stop offset="1" stop-color="white"/>
</linearGradient>
<linearGradient id="paint4_linear_2012_4096" x1="23.5488" y1="2.56481" x2="24.9743" y2="2.56481" gradientUnits="userSpaceOnUse">
<stop stop-color="#3B82F6"/>
<stop offset="1" stop-color="white"/>
</linearGradient>
<linearGradient id="paint5_linear_2012_4096" x1="0.883087" y1="22.5051" x2="6.01493" y2="22.5051" gradientUnits="userSpaceOnUse">
<stop stop-color="#3B82F6"/>
<stop offset="1" stop-color="white"/>
</linearGradient>
<linearGradient id="paint6_linear_2012_4096" x1="42.6505" y1="22.6423" x2="47.6398" y2="22.6423" gradientUnits="userSpaceOnUse">
<stop stop-color="#3B82F6"/>
<stop offset="1" stop-color="white"/>
</linearGradient>
<linearGradient id="paint7_linear_2012_4096" x1="7.23898" y1="8.21772" x2="11.3251" y2="8.21772" gradientUnits="userSpaceOnUse">
<stop stop-color="#3B82F6"/>
<stop offset="1" stop-color="white"/>
</linearGradient>
<linearGradient id="paint8_linear_2012_4096" x1="37.1748" y1="36.785" x2="41.1388" y2="36.785" gradientUnits="userSpaceOnUse">
<stop stop-color="#3B82F6"/>
<stop offset="1" stop-color="white"/>
</linearGradient>
<linearGradient id="paint9_linear_2012_4096" x1="37.0199" y1="8.21658" x2="41.2251" y2="8.21658" gradientUnits="userSpaceOnUse">
<stop stop-color="#3B82F6"/>
<stop offset="1" stop-color="white"/>
</linearGradient>
<linearGradient id="paint10_linear_2012_4096" x1="7.37695" y1="36.7919" x2="11.3604" y2="36.7919" gradientUnits="userSpaceOnUse">
<stop stop-color="#3B82F6"/>
<stop offset="1" stop-color="white"/>
</linearGradient>
</defs>
</svg>
