<svg width="24" height="24" viewBox="0 0 24 24" fill="none" xmlns="http://www.w3.org/2000/svg">
<rect width="24" height="24" rx="4" fill="#D1D1D1"/>
<path d="M6 13V17C6 17.1326 6.05268 17.2598 6.14645 17.3536C6.24021 17.4473 6.36739 17.5 6.5 17.5H17.5C17.6326 17.5 17.7598 17.4473 17.8536 17.3536C17.9473 17.2598 18 17.1326 18 17V13C18 12.8674 17.9473 12.7402 17.8536 12.6464C17.7598 12.5527 17.6326 12.5 17.5 12.5C17.3674 12.5 17.2402 12.5527 17.1464 12.6464C17.0527 12.7402 17 12.8674 17 13V16.5H7V13C7 12.8674 6.94732 12.7402 6.85355 12.6464C6.75979 12.5527 6.63261 12.5 6.5 12.5C6.36739 12.5 6.24021 12.5527 6.14645 12.6464C6.05268 12.7402 6 12.8674 6 13ZM12.3538 13.3538C12.3073 13.4002 12.2522 13.4371 12.1915 13.4623C12.1308 13.4874 12.0657 13.5004 12 13.5004C11.9343 13.5004 11.8692 13.4874 11.8085 13.4623C11.7478 13.4371 11.6927 13.4002 11.6462 13.3538L9.14625 10.8538C9.09979 10.8073 9.06295 10.7521 9.0378 10.6914C9.01266 10.6308 8.99972 10.5657 8.99972 10.5C8.99972 10.4343 9.01266 10.3692 9.0378 10.3086C9.06295 10.2479 9.09979 10.1927 9.14625 10.1462C9.19271 10.0998 9.24786 10.0629 9.30855 10.0378C9.36925 10.0127 9.4343 9.99972 9.5 9.99972C9.5657 9.99972 9.63075 10.0127 9.69145 10.0378C9.75214 10.0629 9.80729 10.0998 9.85375 10.1462L11.5 11.7931V6C11.5 5.86739 11.5527 5.74021 11.6464 5.64645C11.7402 5.55268 11.8674 5.5 12 5.5C12.1326 5.5 12.2598 5.55268 12.3536 5.64645C12.4473 5.74021 12.5 5.86739 12.5 6V11.7931L14.1462 10.1462C14.2401 10.0524 14.3673 9.99972 14.5 9.99972C14.6327 9.99972 14.7599 10.0524 14.8538 10.1462C14.9476 10.2401 15.0003 10.3673 15.0003 10.5C15.0003 10.6327 14.9476 10.7599 14.8538 10.8538L12.3538 13.3538Z" fill="#020202"/>
</svg>
