<svg width="20" height="20" viewBox="0 0 20 20" fill="none" xmlns="http://www.w3.org/2000/svg">
<path d="M6.25 1.625H13.75C14.8995 1.62636 16.0045 2.05523 16.8525 2.82324L17.0186 2.98145C17.8856 3.84849 18.3736 5.02382 18.375 6.25V13.75L18.3691 13.9795C18.315 15.0459 17.8935 16.0611 17.1768 16.8525L17.0186 17.0186C16.1515 17.8856 14.9762 18.3736 13.75 18.375H6.25L6.02051 18.3691C4.95411 18.315 3.93893 17.8935 3.14746 17.1768L2.98145 17.0186C2.1144 16.1515 1.62645 14.9762 1.625 13.75V6.25L1.63086 6.02051C1.68887 4.87793 2.16865 3.79424 2.98145 2.98145C3.79424 2.16865 4.87793 1.68887 6.02051 1.63086L6.25 1.625ZM6.25 3.375C5.4875 3.375 4.75596 3.67763 4.2168 4.2168C3.67763 4.75596 3.375 5.4875 3.375 6.25V13.75C3.375 14.4173 3.60705 15.0606 4.02637 15.5723L4.2168 15.7832C4.75596 16.3224 5.4875 16.625 6.25 16.625H13.75C14.4173 16.625 15.0606 16.3929 15.5723 15.9736L15.7832 15.7832C16.3224 15.244 16.625 14.5125 16.625 13.75V6.25C16.625 5.5827 16.3929 4.93937 15.9736 4.42773L15.7832 4.2168C15.244 3.67763 14.5125 3.375 13.75 3.375H6.25ZM10 6.3125C10.9165 6.31347 11.7975 6.65531 12.4736 7.26758L12.6064 7.39355C13.2978 8.08487 13.6865 9.02233 13.6875 10C13.6875 10.6382 13.5218 11.2637 13.209 11.8164L13.0664 12.0488C12.7119 12.5794 12.2263 13.0072 11.6592 13.293L11.4111 13.4072C10.8216 13.6514 10.1801 13.7377 9.5498 13.6602L9.28027 13.6162C8.65461 13.4917 8.07366 13.2074 7.59277 12.793L7.39258 12.6074C6.94124 12.1561 6.61585 11.5965 6.44629 10.9844L6.38379 10.7197C6.24152 10.0045 6.31373 9.26263 6.59277 8.58887C6.837 7.99925 7.2299 7.48465 7.73047 7.09375L7.95117 6.93359C8.55757 6.52843 9.2707 6.3125 10 6.3125ZM10.7412 8.20996C10.4315 8.08173 10.0947 8.03646 9.76367 8.07715L9.62207 8.09961C9.29335 8.165 8.98803 8.31451 8.73535 8.53223L8.62988 8.62988C8.39283 8.86694 8.22193 9.16091 8.13281 9.48242L8.09961 9.62207C8.03419 9.95101 8.05552 10.2905 8.16016 10.6074L8.20996 10.7412C8.33832 11.0511 8.5445 11.3219 8.80762 11.5273L8.92383 11.6113C9.24238 11.8241 9.61693 11.9375 10 11.9375C10.4495 11.9375 10.8828 11.7813 11.2275 11.499L11.3701 11.3701C11.7335 11.0068 11.9375 10.5139 11.9375 10C11.9375 9.66485 11.8508 9.33619 11.6865 9.0459L11.6113 8.92383C11.4251 8.6451 11.17 8.41966 10.8721 8.26953L10.7412 8.20996ZM14.0625 4.75C14.3381 4.75 14.6041 4.8454 14.8154 5.01855L14.9023 5.09766C15.125 5.32036 15.25 5.62256 15.25 5.9375C15.25 6.11357 15.2103 6.28642 15.1357 6.44434L15.0498 6.59766C14.9193 6.79279 14.7335 6.94435 14.5166 7.03418C14.2997 7.12398 14.0613 7.14827 13.8311 7.10254C13.6583 7.06817 13.4958 6.99562 13.3555 6.8916L13.2227 6.77734C13.0981 6.65274 13.0033 6.50243 12.9443 6.33789L12.8975 6.16895C12.8632 5.9963 12.8678 5.81879 12.9102 5.64941L12.9658 5.4834C13.0333 5.3206 13.1352 5.17502 13.2646 5.05762L13.4023 4.9502C13.5976 4.81971 13.8276 4.75 14.0625 4.75Z" fill="white" stroke="white" stroke-width="0.125"/>
</svg>
