<svg width="22" height="23" viewBox="0 0 22 23" fill="none" xmlns="http://www.w3.org/2000/svg">
<path fill-rule="evenodd" clip-rule="evenodd" d="M20.8616 5.98732L20.7035 5.70491C20.4995 5.36341 20.2118 5.07958 19.8676 4.88028L12.2878 0.508613C11.9445 0.309512 11.5549 0.204317 11.1581 0.203613H10.8305C10.4337 0.204317 10.0441 0.309512 9.70091 0.508613L2.12109 4.89158C1.77878 5.08955 1.49443 5.3739 1.29646 5.71621L1.13831 5.99861C0.939212 6.34184 0.834017 6.73145 0.833313 7.12824V15.8829C0.834017 16.2797 0.939212 16.6693 1.13831 17.0125L1.29646 17.2949C1.49956 17.6332 1.78275 17.9164 2.12109 18.1195L9.7122 22.4912C10.0537 22.6944 10.4445 22.7999 10.8418 22.7962H11.1581C11.5549 22.7955 11.9445 22.6903 12.2878 22.4912L19.8676 18.1082C20.2133 17.9147 20.4987 17.6293 20.6922 17.2836L20.8616 17.0012C21.0583 16.657 21.1634 16.268 21.1666 15.8716V7.11695C21.1659 6.72015 21.0607 6.33054 20.8616 5.98732ZM10.8305 2.46284H11.1581L17.7777 6.28099L11 10.1895L4.22219 6.28099L10.8305 2.46284ZM12.1296 19.9721L18.7379 16.1539L18.9074 15.8715V8.23523L12.1296 12.155V19.9721Z" fill="white"/>
</svg>
