<svg width="37" height="37" viewBox="0 0 37 37" fill="none" xmlns="http://www.w3.org/2000/svg">
<path opacity="0.1" fill-rule="evenodd" clip-rule="evenodd" d="M18.5 36C28.165 36 36 28.165 36 18.5C36 8.83502 28.165 1 18.5 1C8.83502 1 1 8.83502 1 18.5C1 28.165 8.83502 36 18.5 36Z" stroke="white" stroke-width="1.5"/>
<path d="M22.3333 14.667C23.6594 14.667 24.9312 15.1938 25.8689 16.1315C26.8066 17.0691 27.3333 18.3409 27.3333 19.667V25.5003H24V19.667C24 19.225 23.8244 18.801 23.5118 18.4885C23.1993 18.1759 22.7754 18.0003 22.3333 18.0003C21.8913 18.0003 21.4674 18.1759 21.1548 18.4885C20.8423 18.801 20.6667 19.225 20.6667 19.667V25.5003H17.3333V19.667C17.3333 18.3409 17.8601 17.0691 18.7978 16.1315C19.7355 15.1938 21.0073 14.667 22.3333 14.667Z" fill="white"/>
<path d="M14 15.5H10.6667V25.5H14V15.5Z" fill="white"/>
<path d="M12.3333 13.0003C13.2538 13.0003 14 12.2541 14 11.3337C14 10.4132 13.2538 9.66699 12.3333 9.66699C11.4129 9.66699 10.6667 10.4132 10.6667 11.3337C10.6667 12.2541 11.4129 13.0003 12.3333 13.0003Z" fill="white"/>
</svg>
