<svg width="58" height="58" viewBox="0 0 58 58" fill="none" xmlns="http://www.w3.org/2000/svg">
<path d="M56.1467 2.2922C55.2905 2.2922 54.2916 2.2922 53.4354 2.2922C47.5846 2.5776 42.0193 3.86192 36.7393 6.43054C30.3178 9.42727 24.8951 13.7083 20.6141 19.4164C17.6174 23.2693 15.4768 27.5503 13.9071 32.1168C13.7644 32.4022 13.9071 32.5449 14.0498 32.6876C15.3341 33.9719 16.6185 35.2562 17.9028 36.5405C18.0455 36.6832 18.1882 36.9686 18.1882 37.254C18.1882 37.5394 18.0455 37.8248 17.7601 37.9675C17.4747 38.1102 17.0466 38.1102 16.9039 37.8248C16.1904 37.1113 15.6195 36.5405 14.906 35.827C14.0498 34.9708 13.3363 34.1146 12.4801 33.4011C12.1947 33.1157 12.052 32.6876 12.1947 32.2595C14.0498 26.6941 16.7612 21.5569 20.6141 16.9904C24.467 12.2813 29.1762 8.57106 34.4561 5.85973C39.308 3.29111 44.5879 1.7214 50.0106 1.00789C52.2938 0.722486 54.577 0.579785 56.8602 0.722486C57.5737 0.722486 57.7164 1.00789 57.8591 1.7214C58.1445 10.997 55.8613 19.5591 50.8668 27.5503C45.8722 35.3989 39.0226 41.2497 30.4605 44.9599C29.1762 45.5307 27.7492 45.9588 26.3221 46.5296C25.894 46.6723 25.6086 46.6723 25.3232 46.2442C23.8962 44.8172 22.3265 43.2475 20.8995 41.8205C20.6141 41.5351 20.4714 41.107 20.7568 40.6789C21.0422 40.2508 21.613 40.2508 22.0411 40.6789C23.3254 41.9632 24.6097 43.2475 25.894 44.5318C26.1794 44.8172 26.3221 44.8172 26.6075 44.6745C32.8864 42.534 38.4518 39.1091 43.1609 34.5427C48.7262 29.12 52.4365 22.6985 54.577 15.4207C55.7186 11.4251 56.2894 7.28675 56.2894 3.00571C56.2894 2.7203 56.1467 2.5776 56.1467 2.2922Z" fill="url(#paint0_linear_2012_4073)"/>
<path d="M48.2983 18.9885C48.2983 23.8403 44.4454 27.6932 39.5935 27.6932C34.7417 27.6932 30.8887 23.8403 30.8887 18.9885C30.8887 14.2793 34.7417 10.2837 39.4508 10.2837C44.4454 10.2837 48.2983 14.1366 48.2983 18.9885ZM46.5859 19.1312C46.5859 15.1355 43.4464 11.9961 39.4508 11.9961C35.4552 11.9961 32.3157 15.1355 32.3157 19.1312C32.3157 23.1268 35.4552 26.2662 39.4508 26.2662C43.4464 26.1235 46.5859 22.9841 46.5859 19.1312Z" fill="url(#paint1_linear_2012_4073)"/>
<path d="M26.465 55.5199C27.4639 54.9491 28.4628 54.2356 29.319 53.522C32.173 50.9534 33.7428 47.814 34.4563 44.1038C34.599 43.533 34.8844 43.2476 35.3125 43.2476C35.8833 43.2476 36.1687 43.6757 36.1687 44.2465C36.026 44.96 35.8833 45.8162 35.5979 46.5297C34.0282 51.3815 31.1741 54.9491 26.7504 57.375C25.7515 57.9458 25.3234 57.6604 25.1807 56.6615C24.6099 53.6648 24.0391 50.5253 23.4683 47.5286C23.4683 47.2432 23.4683 46.9578 23.4683 46.8151C23.611 46.5297 23.8964 46.387 24.3245 46.387C24.6099 46.387 24.8953 46.6724 25.038 46.9578C25.1807 47.814 25.3234 48.6702 25.6088 49.6691C25.7515 51.6669 26.1796 53.5221 26.465 55.5199Z" fill="url(#paint2_linear_2012_4073)"/>
<path d="M2.9192 31.9738C3.77541 32.1165 4.63162 32.2592 5.34512 32.4019C7.34294 32.8301 9.34076 33.1155 11.1959 33.5436C11.3386 33.5436 11.3386 33.5436 11.4813 33.5436C11.9094 33.6863 12.1948 34.1144 12.0521 34.5425C11.9094 34.9706 11.624 35.256 11.0532 35.1133C9.91156 34.8279 8.62725 34.6852 7.48564 34.3998C5.63053 33.9717 3.77541 33.6863 1.77759 33.2582C1.63489 33.2582 1.63489 33.2582 1.49219 33.2582C0.778681 33.1155 0.63598 32.6874 0.921382 31.9738C1.77759 30.4041 2.7765 28.8344 4.06081 27.5501C6.77214 24.6961 10.0543 23.1264 13.7645 22.2702C13.9072 22.2702 14.0499 22.2702 14.0499 22.1275C14.478 21.9848 14.9061 22.2702 15.0488 22.6983C15.1915 23.1264 14.9061 23.5545 14.3353 23.6972C13.4791 23.9826 12.4802 24.1253 11.624 24.4107C7.91375 25.695 5.05972 27.9782 2.9192 31.2603C3.0619 31.6884 3.0619 31.8311 2.9192 31.9738Z" fill="url(#paint3_linear_2012_4073)"/>
<path d="M13.0508 44.6747C13.1935 44.532 13.3362 44.2466 13.4789 44.1039C16.1902 41.3926 18.7588 38.824 21.4702 36.1126C22.4691 35.1137 23.3253 34.2575 24.3242 33.2586C24.7523 32.8305 25.1804 32.8305 25.6085 33.1159C25.8939 33.4013 25.8939 33.9721 25.4658 34.4002C22.3264 37.5396 19.1869 40.8218 15.9048 43.9612C15.4767 44.3893 15.0486 44.9601 14.4778 45.3882C14.1924 45.6736 13.907 45.6736 13.6216 45.5309C13.1935 45.3882 13.0508 45.1028 13.0508 44.6747Z" fill="url(#paint4_linear_2012_4073)"/>
<path d="M9.34086 48.3848C9.62626 48.5275 9.91166 48.6702 10.0544 48.9556C10.1971 49.241 10.0544 49.5264 9.91166 49.8118C9.76896 49.9545 9.48356 50.2399 9.34086 50.5253C7.62844 52.2377 5.91602 54.0928 4.06091 55.8052C3.77551 55.9479 3.6328 56.0906 3.3474 56.0906C3.062 56.0906 2.7766 55.9479 2.6339 55.6625C2.49119 55.2344 2.49119 54.949 2.7766 54.6636C3.91821 53.522 5.05982 52.3804 6.20143 51.2388C7.05764 50.3826 7.77114 49.6691 8.62735 48.8129C8.91275 48.6702 9.05545 48.5275 9.34086 48.3848Z" fill="url(#paint5_linear_2012_4073)"/>
<path d="M8.05651 42.5342C8.77002 42.5342 9.19812 43.2477 8.91272 43.6758C8.77002 43.8185 8.77002 43.9612 8.62731 44.1039C6.7722 45.959 4.91708 47.8141 3.06196 49.6692L2.91926 49.8119C2.49116 50.0973 2.06305 50.2401 1.77765 49.8119C1.49225 49.5265 1.49225 48.9557 1.77765 48.6703C3.20466 47.2433 4.63168 45.8163 6.05869 44.3893C6.6295 43.8185 7.0576 43.3904 7.6284 42.9623C7.77111 42.6769 8.05651 42.5342 8.05651 42.5342Z" fill="url(#paint6_linear_2012_4073)"/>
<path d="M16.0478 50.5255C16.0478 50.6682 15.9051 50.8109 15.7624 51.0963C13.7646 53.0941 11.9094 54.9492 9.91163 56.947C9.48352 57.3751 9.05542 57.3751 8.62731 56.947C8.34191 56.6616 8.34191 56.0908 8.77002 55.8054C10.7678 53.8076 12.623 51.9525 14.6208 49.9547C14.9062 49.6693 15.1916 49.5266 15.6197 49.6693C15.9051 49.812 16.0478 49.9547 16.0478 50.5255Z" fill="url(#paint7_linear_2012_4073)"/>
<defs>
<linearGradient id="paint0_linear_2012_4073" x1="35.0108" y1="0.666504" x2="35.0108" y2="46.615" gradientUnits="userSpaceOnUse">
<stop stop-color="#2A7AF1"/>
<stop offset="1" stop-color="white"/>
</linearGradient>
<linearGradient id="paint1_linear_2012_4073" x1="39.5935" y1="10.2837" x2="39.5935" y2="27.6932" gradientUnits="userSpaceOnUse">
<stop stop-color="#2A7AF1"/>
<stop offset="1" stop-color="white"/>
</linearGradient>
<linearGradient id="paint2_linear_2012_4073" x1="29.8185" y1="43.2476" x2="29.8185" y2="57.6659" gradientUnits="userSpaceOnUse">
<stop stop-color="#2A7AF1"/>
<stop offset="1" stop-color="white"/>
</linearGradient>
<linearGradient id="paint3_linear_2012_4073" x1="7.93437" y1="22.0903" x2="7.93437" y2="35.1504" gradientUnits="userSpaceOnUse">
<stop stop-color="#2A7AF1"/>
<stop offset="1" stop-color="white"/>
</linearGradient>
<linearGradient id="paint4_linear_2012_4073" x1="19.4291" y1="32.917" x2="19.4291" y2="45.6246" gradientUnits="userSpaceOnUse">
<stop stop-color="#2A7AF1"/>
<stop offset="1" stop-color="white"/>
</linearGradient>
<linearGradient id="paint5_linear_2012_4073" x1="6.32682" y1="48.3848" x2="6.32682" y2="56.0906" gradientUnits="userSpaceOnUse">
<stop stop-color="#2A7AF1"/>
<stop offset="1" stop-color="white"/>
</linearGradient>
<linearGradient id="paint6_linear_2012_4073" x1="5.28286" y1="42.5342" x2="5.28286" y2="50.0821" gradientUnits="userSpaceOnUse">
<stop stop-color="#2A7AF1"/>
<stop offset="1" stop-color="white"/>
</linearGradient>
<linearGradient id="paint7_linear_2012_4073" x1="12.2381" y1="49.6133" x2="12.2381" y2="57.2681" gradientUnits="userSpaceOnUse">
<stop stop-color="#2A7AF1"/>
<stop offset="1" stop-color="white"/>
</linearGradient>
</defs>
</svg>
